<svg width="60" height="60" viewBox="0 0 60 60" fill="none" xmlns="http://www.w3.org/2000/svg">
<g clip-path="url(#clip0_178_365)">
<path d="M60 2.8501H57.15V11.4188H60V2.8501Z" fill="white"/>
<path d="M57.15 11.4187H54.2812V17.1375H57.15V11.4187Z" fill="white"/>
<path d="M57.15 0H51.4313V2.85H57.15V0Z" fill="white"/>
<path d="M54.2813 17.1375H51.4313V22.8562H54.2813V17.1375Z" fill="white"/>
<path d="M51.4313 22.8562H48.5625V28.575H51.4313V22.8562Z" fill="white"/>
<path d="M51.4313 2.8501H48.5625V8.56885H51.4313V2.8501Z" fill="white"/>
<path d="M48.5625 28.575H45.7125V34.275H48.5625V28.575Z" fill="white"/>
<path d="M48.5625 8.56885H45.7125V14.2876H48.5625V8.56885Z" fill="white"/>
<path d="M45.7125 42.8625H42.8625V51.4313H45.7125V42.8625Z" fill="white"/>
<path d="M45.7125 34.2749H42.8625V39.9937H45.7125V34.2749Z" fill="white"/>
<path d="M45.7125 14.2876H42.8625V20.0063H45.7125V14.2876Z" fill="white"/>
<path d="M42.8625 20.0063H39.9938V25.7063H42.8625V20.0063Z" fill="white"/>
<path d="M39.9937 48.5625H37.1437V51.4313H34.2937V48.5625H31.425V45.7125H28.575V48.5625H25.7062V42.8625H22.8562V51.4313H20.0062V54.2813H17.1375V57.1313H2.84998V60H34.2937V57.1313H39.9937V54.2813H42.8625V51.4313H39.9937V48.5625Z" fill="white"/>
<path d="M42.8626 39.9937H37.1438V42.8624H42.8626V39.9937Z" fill="white"/>
<path d="M39.9938 25.7063H37.1438V31.425H39.9938V25.7063Z" fill="white"/>
<path d="M37.1437 39.9938V31.425H34.2937V37.1438H28.575V39.9938H37.1437Z" fill="white"/>
<path d="M28.575 39.9937H25.7063V42.8624H28.575V39.9937Z" fill="white"/>
<path d="M28.575 22.8562H25.7063V25.7062H28.575V22.8562Z" fill="white"/>
<path d="M25.7062 25.7063H22.8562V28.575H25.7062V25.7063Z" fill="white"/>
<path d="M25.7062 20.0063H2.84998V22.8563H25.7062V20.0063Z" fill="white"/>
<path d="M20.0062 42.8625H17.1375V45.7125H20.0062V42.8625Z" fill="white"/>
<path d="M22.8562 28.575H14.2875V31.425H22.8562V28.575Z" fill="white"/>
<path d="M17.1375 45.7124H14.2875V48.5624H17.1375V45.7124Z" fill="white"/>
<path d="M17.1375 39.9937H8.56873V42.8624H17.1375V39.9937Z" fill="white"/>
<path d="M14.2875 31.425H8.56873V34.275H14.2875V31.425Z" fill="white"/>
<path d="M14.2875 48.5625H5.71875V51.4313H14.2875V48.5625Z" fill="white"/>
<path d="M8.56875 34.2749H5.71875V39.9937H8.56875V34.2749Z" fill="white"/>
<path d="M5.71873 51.4312H2.84998V54.2812H5.71873V51.4312Z" fill="white"/>
<path d="M2.85 54.2812H0V57.1312H2.85V54.2812Z" fill="white"/>
</g>
<defs>
<clipPath id="clip0_178_365">
<rect width="60" height="60" fill="white"/>
</clipPath>
</defs>
</svg>
