<svg width="35" height="35" viewBox="0 0 35 35" fill="none" xmlns="http://www.w3.org/2000/svg">
<path d="M26.6602 24.9922V23.3297H24.9977V21.6672H26.6602V4.99844H23.3242V3.33594H26.6602V1.6625H33.332V24.9922H26.6602ZM29.9961 18.3312H28.3336V21.6672H29.9961V18.3312Z" fill="#000001"/>
<path d="M24.9977 24.9922H23.3242V23.3297H24.9977V24.9922Z" fill="#000001"/>
<path d="M23.3242 26.6656H21.6617V24.9922H23.3242V26.6656Z" fill="#000001"/>
<path d="M23.3242 3.33594H21.6617V1.6625H23.3242V3.33594Z" fill="#000001"/>
<path d="M21.6618 33.3265H19.9993V26.6656H21.6618V33.3265Z" fill="#000001"/>
<path d="M19.9993 35H16.6633V33.3266H19.9993V35Z" fill="#000001"/>
<path d="M21.6617 1.66248H6.66638V-2.49147e-05H21.6617V1.66248Z" fill="#000001"/>
<path d="M18.3258 23.3297H16.6633V21.6672H18.3258V23.3297Z" fill="#000001"/>
<path d="M16.6632 33.3265H15.0007V31.664H16.6632V33.3265Z" fill="#000001"/>
<path d="M16.6632 24.9922H15.0007V23.3297H16.6632V24.9922Z" fill="#000001"/>
<path d="M15.0008 31.6641H13.3274V24.9922H15.0008V31.6641Z" fill="#000001"/>
<path d="M16.6632 21.6672H4.99292V19.9938H16.6632V21.6672Z" fill="#000001"/>
<path d="M11.6648 4.99839V6.66089H3.33044V3.33589H4.99294V4.99839H11.6648Z" fill="#000001"/>
<path d="M6.66636 3.33594H4.99292V1.6625H6.66636V3.33594Z" fill="#000001"/>
<path d="M4.99294 19.9938H3.33044V18.3313H4.99294V19.9938Z" fill="#000001"/>
<path d="M9.99141 9.99692V11.6594H3.33047V14.9954H9.99141V16.6688H3.33047V18.3313H1.66797V6.66099H3.33047V9.99692H9.99141Z" fill="#000001"/>
</svg>
