<svg width="24" height="24" viewBox="0 0 24 24" fill="none" xmlns="http://www.w3.org/2000/svg">
<g clip-path="url(#clip0_23_638)">
<path d="M10.2825 17.8574L9.14253 17.8574L9.14253 20.1449L5.71503 20.1449L5.71503 21.2849L13.7175 21.2849L13.7175 20.1449L10.2825 20.1449L10.2825 17.8574Z" fill="#000001"/>
<path d="M3.42753 18.9976L3.42753 7.5751L4.56753 7.5751L4.56753 6.4276L3.42753 6.4276L3.42753 5.2876L2.67029e-05 5.2876L2.60036e-05 21.2851L3.42753 21.2851L3.42753 20.1451L5.71503 20.1451L5.71503 18.9976L3.42753 18.9976ZM1.14003 18.9976L1.14003 16.7176L2.28753 16.7176L2.28753 18.9976L1.14003 18.9976Z" fill="#000001"/>
<path d="M14.8575 20.1451L14.8575 18.9976L13.7175 18.9976L13.7175 20.1451L14.8575 20.1451Z" fill="#000001"/>
<path d="M10.2825 16.7175L10.2825 17.8575L14.8575 17.8575L14.8575 18.9975L15.9975 18.9975L15.9975 16.7175L10.2825 16.7175Z" fill="#000001"/>
<path d="M10.2825 16.7174L10.2825 14.4299L9.14247 14.4299L9.14247 16.7174L10.2825 16.7174Z" fill="#000001"/>
<path d="M9.14252 12.1426L9.14252 8.71509L8.00252 8.71509L8.00252 12.1426L9.14252 12.1426Z" fill="#000001"/>
<path d="M13.7175 9.85509L13.7175 8.71509L12.57 8.71509L12.57 11.0026L15.9975 11.0026L15.9975 13.2901L12.57 13.2901L12.57 11.0026L11.43 11.0026L11.43 12.1426L9.14249 12.1426L9.14249 13.2901L10.2825 13.2901L10.2825 14.4301L15.9975 14.4301L15.9975 16.7176L17.145 16.7176L17.145 11.0026L22.86 11.0026L22.86 9.85509L13.7175 9.85509Z" fill="#000001"/>
<path d="M24 9.85495L24 7.57495L22.86 7.57495L22.86 9.85495L24 9.85495Z" fill="#000001"/>
<path d="M10.2825 8.71495L10.2825 7.57495L9.14247 7.57495L9.14247 8.71495L10.2825 8.71495Z" fill="#000001"/>
<path d="M13.7175 8.7151L14.8575 8.7151L14.8575 7.5751L22.86 7.5751L22.86 6.4276L14.8575 6.4276L14.8575 5.2876L13.7175 5.2876L13.7175 8.7151Z" fill="#000001"/>
<path d="M5.71503 6.4276L5.71503 5.2876L4.56753 5.2876L4.56753 6.4276L5.71503 6.4276Z" fill="#000001"/>
<path d="M8.0025 5.28746L8.0025 4.14746L5.715 4.14746L5.715 5.28746L8.0025 5.28746Z" fill="#000001"/>
<path d="M13.7175 5.28746L13.7175 4.14746L12.57 4.14746L12.57 5.28746L13.7175 5.28746Z" fill="#000001"/>
<path d="M12.57 4.1475L12.57 3L8.00251 3L8.00251 4.1475L12.57 4.1475Z" fill="#000001"/>
</g>
<defs>
<clipPath id="clip0_23_638">
<rect width="24" height="24" fill="white" transform="translate(24 1.04907e-06) rotate(90)"/>
</clipPath>
</defs>
</svg>
