<svg width="88" height="88" viewBox="0 0 88 88" fill="none" xmlns="http://www.w3.org/2000/svg">
<path d="M83.8063 71.2251H79.6263V83.7926H75.4463V75.4326H71.2388V88.0001H83.8063V71.2251Z" fill="white"/>
<path d="M79.6262 54.4775H75.4462V71.225H79.6262V54.4775Z" fill="white"/>
<path d="M71.2387 62.8374H67.0587V75.4324H71.2387V62.8374Z" fill="white"/>
<path d="M67.0587 46.09H71.2387V54.4775H75.4462V41.91H71.2387V20.955H75.4462V4.18H46.1037V0H41.9237V4.18H12.5812V20.955H16.775V8.3875H62.8925V20.955H58.685V41.91H54.505V58.6575H8.40123V41.91H4.19373V62.8375H12.5812V75.4325H16.775V62.8375H20.9825V75.4325H16.775V83.7925H12.5812V75.4325H8.40123V88H20.9687V79.6125H46.1037V88H58.6712V75.4325H54.4912V83.7925H50.2837V75.4325H25.1487V71.225H50.2837V75.4325H54.4912V62.8375H58.6712V75.4325H62.8787V62.8375H67.0587V46.09ZM50.2837 67.045H25.1487V62.8375H50.2837V67.045Z" fill="white"/>
<path d="M54.4913 29.3149H50.2838V37.7024H54.4913V29.3149Z" fill="white"/>
<path d="M50.2837 37.7026H46.1037V46.0901H50.2837V37.7026Z" fill="white"/>
<path d="M50.2837 25.1348H46.1037V29.3148H50.2837V25.1348Z" fill="white"/>
<path d="M50.2837 12.5674H46.1037V16.7474H50.2837V12.5674Z" fill="white"/>
<path d="M46.1037 46.0898H25.1487V50.2698H46.1037V46.0898Z" fill="white"/>
<path d="M41.9237 29.3149H37.7162V33.5224H41.9237V29.3149Z" fill="white"/>
<path d="M37.7163 37.7026H33.5363V41.9101H37.7163V37.7026Z" fill="white"/>
<path d="M29.3562 29.3149H25.1487V33.5224H29.3562V29.3149Z" fill="white"/>
<path d="M46.1037 25.1349V16.7474H41.9237V20.9549H37.7163V12.5674H33.5362V20.9549H29.3563V16.7474H25.1488V20.9549H20.9688V25.1349H46.1037Z" fill="white"/>
<path d="M25.1488 37.7026H20.9688V46.0901H25.1488V37.7026Z" fill="white"/>
<path d="M25.1488 12.5674H20.9688V16.7474H25.1488V12.5674Z" fill="white"/>
<path d="M20.9687 25.1348H16.7612V37.7023H20.9687V25.1348Z" fill="white"/>
<path d="M12.5812 20.9551H8.40125V41.9101H12.5812V20.9551Z" fill="white"/>
</svg>
