<svg width="32" height="32" viewBox="0 0 32 32" fill="none" xmlns="http://www.w3.org/2000/svg">
<path d="M22.1464 0V2.28038H24.6179V4.57576H27.0732V9.15153V20.5684H24.6179V9.15153H22.1464V6.85615H9.83747V9.15153H7.38214V20.5684H4.92682L4.92679 11.4319L4.92682 9.15153V4.57576H7.38214V2.28038H9.83747V0H22.1464Z" fill="white"/>
<path d="M32 29.7197H29.5285V32.0001H32V29.7197Z" fill="white"/>
<path d="M29.5285 27.439H27.0732V29.7193H29.5285V27.439Z" fill="white"/>
<path d="M27.0732 25.1436H22.1464V27.4389H27.0732V25.1436Z" fill="white"/>
<path d="M24.6179 20.5684H22.1464V22.8637H24.6179V20.5684Z" fill="white"/>
<path d="M22.1464 11.4316H19.6911V16.0074H22.1464V11.4316Z" fill="white"/>
<path d="M22.1465 22.8638H9.83752V25.1442H22.1465V22.8638Z" fill="white"/>
<path d="M19.691 18.2881H12.3089V20.5685H19.691V18.2881Z" fill="white"/>
<path d="M12.309 11.4316H9.83752V16.0074H12.309V11.4316Z" fill="white"/>
<path d="M9.83746 20.5684H7.38214V22.8637H9.83746V20.5684Z" fill="white"/>
<path d="M9.83747 25.1436H4.92682V27.4389H9.83747V25.1436Z" fill="white"/>
<path d="M4.9268 27.439H2.45532V29.7193H4.9268V27.439Z" fill="white"/>
<path d="M2.45532 29.7197H0V32.0001H2.45532V29.7197Z" fill="white"/>
</svg>
