<svg width="32" height="32" viewBox="0 0 32 32" fill="none" xmlns="http://www.w3.org/2000/svg">
<path d="M27.43 1.52002H25.91V30.47H27.43V1.52002Z" fill="white"/>
<path d="M25.91 30.47H22.86V32H25.91V30.47Z" fill="white"/>
<path d="M22.86 28.95H21.34V30.4699H22.86V28.95Z" fill="white"/>
<path d="M22.86 7.62012H21.34V9.14012H19.81V10.6601H18.29V12.1901H16.76V13.7101H15.24V15.2301H13.72V13.7101H12.19V12.1901H10.67V13.7101H9.15002V15.2301H10.67V16.7601H12.19V18.2801H13.72V19.8101H15.24V18.2801H16.76V16.7601H18.29V15.2301H19.81V13.7101H21.34V12.1901H22.86V10.6601H24.38V9.14012H22.86V7.62012Z" fill="white"/>
<path d="M21.34 27.4299H19.81V28.9499H21.34V27.4299Z" fill="white"/>
<path d="M19.81 25.8999H18.29V27.4299H19.81V25.8999Z" fill="white"/>
<path d="M18.29 24.3799H16.76V25.8999H18.29V24.3799Z" fill="white"/>
<path d="M16.76 22.8501H15.24V24.3801H16.76V22.8501Z" fill="white"/>
<path d="M15.24 24.3799H13.72V25.8999H15.24V24.3799Z" fill="white"/>
<path d="M13.72 25.8999H12.19V27.4299H13.72V25.8999Z" fill="white"/>
<path d="M12.19 27.4299H10.67V28.9499H12.19V27.4299Z" fill="white"/>
<path d="M10.67 28.95H9.15002V30.4699H10.67V28.95Z" fill="white"/>
<path d="M25.91 0H6.10004V1.52H25.91V0Z" fill="white"/>
<path d="M9.15004 30.47H6.10004V32H9.15004V30.47Z" fill="white"/>
<path d="M6.10001 1.52002H4.57001V30.47H6.10001V1.52002Z" fill="white"/>
</svg>
