<svg width="57" height="57" viewBox="0 0 57 57" fill="none" xmlns="http://www.w3.org/2000/svg">
<path d="M1.35372 14.927H4.06122V28.5001H1.35372V14.927Z" fill="white"/>
<path d="M4.06125 28.5H6.78656V33.9328H4.06125V28.5Z" fill="white"/>
<path d="M4.06125 9.49414H6.78656V14.927H4.06125V9.49414Z" fill="white"/>
<path d="M6.78658 33.9329H9.49408V36.6404H6.78658V33.9329Z" fill="white"/>
<path d="M6.78658 6.78662H9.49408V9.49412H6.78658V6.78662Z" fill="white"/>
<path d="M9.49405 36.6404H12.2194V39.3657H9.49405V36.6404Z" fill="white"/>
<path d="M9.49405 20.3596H12.2194V31.2074H9.49405V20.3596Z" fill="white"/>
<path d="M12.2194 39.3657H14.9269V42.0732H12.2194V39.3657Z" fill="white"/>
<path d="M12.2194 31.2075H14.9269V33.9328H12.2194V31.2075Z" fill="white"/>
<path d="M9.49407 4.0791H14.9269V6.7866H9.49407V4.0791Z" fill="white"/>
<path d="M14.9268 42.0732H17.6343V44.7807H14.9268V42.0732Z" fill="white"/>
<path d="M14.9268 33.9329H17.6343V36.6404H14.9268V33.9329Z" fill="white"/>
<path d="M12.2194 17.6521H20.3597V20.3596H12.2194V17.6521Z" fill="white"/>
<path d="M17.6344 44.7805H20.3597V47.5058H17.6344V44.7805Z" fill="white"/>
<path d="M20.3597 47.5059H23.0672V50.2134H20.3597V47.5059Z" fill="white"/>
<path d="M17.6344 36.6404H28.5V39.3657H17.6344V36.6404Z" fill="white"/>
<path d="M20.3597 20.3596H23.0672V23.0671H20.3597V20.3596Z" fill="white"/>
<path d="M23.0672 14.9269H17.6343V12.2194H14.9268V9.49412H17.6343V6.78662H23.0672V9.49412H25.7747V12.2194H23.0672V14.9269Z" fill="white"/>
<path d="M23.0672 50.2134H25.7747V52.9209H23.0672V50.2134Z" fill="white"/>
<path d="M23.0672 23.0671H25.7747V25.7925H23.0672V23.0671Z" fill="white"/>
<path d="M25.7747 25.7925H28.5V28.5H25.7747V25.7925Z" fill="white"/>
<path d="M25.7747 52.9209H42.0731V55.6462H25.7747V52.9209Z" fill="white"/>
<path d="M28.5 28.5H31.2075V36.6403H28.5V28.5Z" fill="white"/>
<path d="M14.9269 1.35376H33.9328V4.07907H14.9269V1.35376Z" fill="white"/>
<path d="M31.2075 39.3657H36.6403V42.0732H39.3478V47.506H36.6403V50.2135H31.2075V47.506H28.5V42.0732H31.2075V39.3657Z" fill="white"/>
<path d="M33.9328 4.0791H39.3478V6.7866H33.9328V4.0791Z" fill="white"/>
<path d="M39.3478 23.0673H33.9328V20.3598H31.2075V14.927H33.9328V12.2195H39.3478V14.927H42.0731V20.3598H39.3478V23.0673Z" fill="white"/>
<path d="M47.4881 36.6403H42.0731V33.9328H39.3478V28.5H42.0731V25.7925H47.4881V28.5H50.2134V33.9328H47.4881V36.6403Z" fill="white"/>
<path d="M39.3478 6.78662H44.7806V9.49412H39.3478V6.78662Z" fill="white"/>
<path d="M42.0731 50.2134H44.7806V52.9209H42.0731V50.2134Z" fill="white"/>
<path d="M44.7806 47.5059H50.2134V50.2134H44.7806V47.5059Z" fill="white"/>
<path d="M44.7806 9.49414H47.4881V12.2195H44.7806V9.49414Z" fill="white"/>
<path d="M47.4881 12.2195H50.2134V17.6523H47.4881V12.2195Z" fill="white"/>
<path d="M50.2134 42.0732H52.9209V47.5061H50.2134V42.0732Z" fill="white"/>
<path d="M50.2134 17.6521H52.9209V23.0671H50.2134V17.6521Z" fill="white"/>
<path d="M52.9209 23.0671H55.6462V42.0731H52.9209V23.0671Z" fill="white"/>
</svg>
