<svg width="102" height="102" viewBox="0 0 102 102" fill="none" xmlns="http://www.w3.org/2000/svg">
<g clip-path="url(#clip0_29_706)">
<path d="M72.8662 58.2676V43.7007H29.1338V58.2676H0V102H102V58.2676H72.8662ZM29.1338 97.1232H4.87687V63.1444H29.1338V97.1232ZM67.9894 97.1232H34.0106V48.5776H67.9894V97.1232ZM97.155 97.1232H72.8662V63.1444H97.155V97.1232Z" fill="#E2EE6F"/>
<path d="M92.2781 67.9893H77.7112V72.8661H87.4331V77.7111H77.7112V82.5561H87.4331V87.433H77.7112V92.278H92.2781V67.9893Z" fill="#E2EE6F"/>
<path d="M92.2781 19.4119H82.5881V24.2887H92.2781V19.4119Z" fill="#E2EE6F"/>
<path d="M82.5881 0H77.7112V4.845H82.5881V0Z" fill="#E2EE6F"/>
<path d="M77.7112 4.84497H72.8662V9.72185H77.7112V4.84497Z" fill="#E2EE6F"/>
<path d="M58.2993 72.8664H53.4224V53.4226H43.7324V58.2676H48.5774V72.8664H43.7324V77.7114H58.2993V72.8664Z" fill="#E2EE6F"/>
<path d="M53.4224 0H48.5774V9.72188H53.4224V0Z" fill="#E2EE6F"/>
<path d="M29.1338 14.5669V33.9788H34.0107V38.8556H67.9894V33.9788H72.8663V14.5669H67.9894V19.4119H63.1444V24.2888H58.2994V19.4119H53.4225V14.5669H48.5775V19.4119H43.7325V24.2888H38.8557V19.4119H34.0107V14.5669H29.1338ZM58.2994 29.1338H63.1444V33.9788H58.2994V29.1338ZM48.5775 29.1338H53.4225V33.9788H48.5775V29.1338ZM38.8557 29.1338H43.7325V33.9788H38.8557V29.1338Z" fill="#E2EE6F"/>
<path d="M29.1338 4.84497H24.2888V9.72185H29.1338V4.84497Z" fill="#E2EE6F"/>
<path d="M24.2888 0H19.4438V4.845H24.2888V0Z" fill="#E2EE6F"/>
<path d="M24.2888 87.433H14.5669V82.5561H24.2888V67.9893H9.72192V72.8661H19.4438V77.7111H9.72192V92.278H24.2888V87.433Z" fill="#E2EE6F"/>
<path d="M19.4438 19.4119H9.72192V24.2887H19.4438V19.4119Z" fill="#E2EE6F"/>
</g>
<defs>
<clipPath id="clip0_29_706">
<rect width="102" height="102" fill="white"/>
</clipPath>
</defs>
</svg>
