<svg width="32" height="32" viewBox="0 0 32 32" fill="none" xmlns="http://www.w3.org/2000/svg">
<g clip-path="url(#clip0_29_815)">
<path d="M24.38 19.8098H22.85V22.8598H19.81V24.3798H16.76V25.8998H21.33V27.4298H22.85V28.9498H24.38V30.4798H25.9V31.9998H27.43V30.4798H28.95V28.9498H30.47V27.4298H32V25.8998H30.47V24.3798H28.95V22.8598H27.43V21.3298H25.9V16.7598H24.38V19.8098Z" fill="white"/>
<path d="M27.43 10.6699H25.9V16.7599H27.43V10.6699Z" fill="white"/>
<path d="M25.9 7.62012H24.38V10.6701H25.9V7.62012Z" fill="white"/>
<path d="M24.38 4.56982H22.85V7.61982H24.38V4.56982Z" fill="white"/>
<path d="M22.85 12.1899H21.33V15.2399H22.85V12.1899Z" fill="white"/>
<path d="M21.33 9.14014H19.81V12.1901H21.33V9.14014Z" fill="white"/>
<path d="M22.85 3.0498H19.81V4.5698H22.85V3.0498Z" fill="white"/>
<path d="M19.81 7.62012H16.76V9.14012H19.81V7.62012Z" fill="white"/>
<path d="M19.81 1.52002H16.76V3.05002H19.81V1.52002Z" fill="white"/>
<path d="M16.76 6.1001H13.71V7.6201H16.76V6.1001Z" fill="white"/>
<path d="M16.76 25.8999H10.66V27.4299H16.76V25.8999Z" fill="white"/>
<path d="M16.76 0H10.66V1.52H16.76V0Z" fill="white"/>
<path d="M10.66 24.3799H7.62V25.8999H10.66V24.3799Z" fill="white"/>
<path d="M10.66 1.52002H7.62V3.05002H10.66V1.52002Z" fill="white"/>
<path d="M7.62001 22.8599H4.57001V24.3799H7.62001V22.8599Z" fill="white"/>
<path d="M7.62001 3.0498H4.57001V4.5698H7.62001V3.0498Z" fill="white"/>
<path d="M4.56999 19.8101H3.04999V22.8601H4.56999V19.8101Z" fill="white"/>
<path d="M4.56999 4.56982H3.04999V7.61982H4.56999V4.56982Z" fill="white"/>
<path d="M3.05002 16.7598H1.52002V19.8098H3.05002V16.7598Z" fill="white"/>
<path d="M3.05002 7.62012H1.52002V10.6701H3.05002V7.62012Z" fill="white"/>
<path d="M1.52 10.6699H0V16.7599H1.52V10.6699Z" fill="white"/>
</g>
<defs>
<clipPath id="clip0_29_815">
<rect width="32" height="32" fill="white"/>
</clipPath>
</defs>
</svg>
