<svg width="29" height="29" viewBox="0 0 29 29" fill="none" xmlns="http://www.w3.org/2000/svg">
<path d="M28.9499 13.72H27.4299V15.24H28.9499V13.72Z" fill="#606A00"/>
<path d="M27.4299 15.24H25.8999V16.76H27.4299V15.24Z" fill="#606A00"/>
<path d="M27.4299 12.1899H25.8999V13.7199H27.4299V12.1899Z" fill="#606A00"/>
<path d="M25.8999 16.76H24.3799V18.29H25.8999V16.76Z" fill="#606A00"/>
<path d="M25.8999 10.6699H24.3799V12.1899H25.8999V10.6699Z" fill="#606A00"/>
<path d="M22.86 22.86H18.28V24.38H24.38V18.29H22.86V22.86Z" fill="#606A00"/>
<path d="M13.7101 15.2399H12.1901V13.7199H10.6601V12.1899H9.14012V13.7199H7.62012V15.2399H9.14012V16.7599H10.6601V18.2899H12.1901V19.8099H13.7101V18.2899H15.2401V16.7599H16.7601V15.2399H18.2801V13.7199H19.8101V12.1899H21.3301V10.6699H19.8101V9.13989H18.2801V10.6699H16.7601V12.1899H15.2401V13.7199H13.7101V15.2399Z" fill="#606A00"/>
<path d="M22.86 6.10007V10.6701H24.38V4.57007H18.28V6.10007H22.86Z" fill="#606A00"/>
<path d="M18.28 24.3799H16.76V25.9099H18.28V24.3799Z" fill="#606A00"/>
<path d="M18.28 3.05005H16.76V4.57005H18.28V3.05005Z" fill="#606A00"/>
<path d="M16.76 25.9099H15.24V27.4299H16.76V25.9099Z" fill="#606A00"/>
<path d="M16.76 1.53003H15.24V3.05003H16.76V1.53003Z" fill="#606A00"/>
<path d="M15.24 27.4299H13.71V28.9499H15.24V27.4299Z" fill="#606A00"/>
<path d="M15.24 0H13.71V1.53H15.24V0Z" fill="#606A00"/>
<path d="M13.7099 25.9099H12.1899V27.4299H13.7099V25.9099Z" fill="#606A00"/>
<path d="M13.7099 1.53003H12.1899V3.05003H13.7099V1.53003Z" fill="#606A00"/>
<path d="M12.1899 24.3799H10.6599V25.9099H12.1899V24.3799Z" fill="#606A00"/>
<path d="M12.1899 3.05005H10.6599V4.57005H12.1899V3.05005Z" fill="#606A00"/>
<path d="M6.09007 22.86V18.29H4.57007V24.38H10.6601V22.86H6.09007Z" fill="#606A00"/>
<path d="M6.09007 6.10007H10.6601V4.57007H4.57007V10.6701H6.09007V6.10007Z" fill="#606A00"/>
<path d="M4.57005 16.76H3.05005V18.29H4.57005V16.76Z" fill="#606A00"/>
<path d="M4.57005 10.6699H3.05005V12.1899H4.57005V10.6699Z" fill="#606A00"/>
<path d="M3.05002 15.24H1.52002V16.76H3.05002V15.24Z" fill="#606A00"/>
<path d="M3.05002 12.1899H1.52002V13.7199H3.05002V12.1899Z" fill="#606A00"/>
<path d="M1.52 13.72H0V15.24H1.52V13.72Z" fill="#606A00"/>
</svg>
