<svg width="22" height="22" viewBox="0 0 22 22" fill="none" xmlns="http://www.w3.org/2000/svg">
<path d="M13.0968 9.43252V10.4775H14.1418V14.6713H15.1868V10.4775H20.4256V16.7613H21.4774V5.23877H20.4256V9.43252H13.0968Z" fill="white"/>
<path d="M20.4256 16.7612H19.3806V17.8131H20.4256V16.7612Z" fill="white"/>
<path d="M20.4256 4.19385H19.3806V5.23885H20.4256V4.19385Z" fill="white"/>
<path d="M19.3806 6.29102H18.3356V7.33602H19.3806V6.29102Z" fill="white"/>
<path d="M19.3806 17.8135H2.61938V18.8585H19.3806V17.8135Z" fill="white"/>
<path d="M18.3356 7.33594H15.1869V8.38094H18.3356V7.33594Z" fill="white"/>
<path d="M18.3356 5.23877H15.1869V6.29064H18.3356V5.23877Z" fill="white"/>
<path d="M15.1868 6.29102H14.1418V7.33602H15.1868V6.29102Z" fill="white"/>
<path d="M14.1418 14.6714H13.0968V15.7164H14.1418V14.6714Z" fill="white"/>
<path d="M19.3805 3.14209H12.0449V4.19396H19.3805V3.14209Z" fill="white"/>
<path d="M9.95495 14.6713H12.045V13.6194H13.0968V11.5225H12.045V12.5744H11V11.5225H12.045V10.4775H9.95495V11.5225H8.90308V13.6194H9.95495V14.6713Z" fill="white"/>
<path d="M13.0968 8.38086H8.90308V9.43273H13.0968V8.38086Z" fill="white"/>
<path d="M13.0968 15.7163H8.90308V16.7613H13.0968V15.7163Z" fill="white"/>
<path d="M12.045 4.19385H11V5.23885H12.045V4.19385Z" fill="white"/>
<path d="M8.90303 14.6714H7.85803V15.7164H8.90303V14.6714Z" fill="white"/>
<path d="M8.90311 3.14209H5.76123V4.19396H8.90311V3.14209Z" fill="white"/>
<path d="M5.76118 7.33594H3.66431V8.38094H5.76118V7.33594Z" fill="white"/>
<path d="M11 6.29072V5.23885H9.95501V4.19385H8.90313V5.23885H5.76126V4.19385H4.71626V5.23885H2.61938V6.29072H11Z" fill="white"/>
<path d="M2.61938 16.7612H1.5675V17.8131H2.61938V16.7612Z" fill="white"/>
<path d="M2.61938 6.29102H1.5675V7.33602H2.61938V6.29102Z" fill="white"/>
<path d="M1.56746 10.4778H6.80621V14.6716H7.85809V10.4778H8.90309V9.43281H1.56746V7.33594H0.522461V16.7616H1.56746V10.4778Z" fill="white"/>
</svg>
