<svg width="21" height="20" viewBox="0 0 21 20" fill="none" xmlns="http://www.w3.org/2000/svg">
<g clip-path="url(#clip0_178_528)">
<path d="M19.6049 5.7125H18.6208V3.80625H17.6431V2.85625H16.659V1.90625H14.7036V0.95H12.7419V0H7.84065V0.95H5.87888V1.90625H3.91711V2.85625H2.93944V3.80625H1.96177V5.7125H0.97767V7.61875H0V12.3812H0.97767V14.2875H1.96177V16.1875H2.93944V17.1438H3.91711V18.0938H5.87888V19.05H7.84065V20H12.7419V19.05H14.7036V18.0938H16.659V17.1438H17.6431V16.1875H18.6208V14.2875H19.6049V12.3812H20.5825V7.61875H19.6049V5.7125ZM7.84065 3.80625H8.81832V2.85625H11.7642V3.80625H12.7419V6.66875H11.7642V7.61875H8.81832V6.66875H7.84065V3.80625ZM14.7036 16.1875H13.7195V17.1438H8.81832V16.1875H7.84065V9.525H8.81832V8.56875H11.7642V9.525H12.7419V14.2875H13.7195V15.2375H14.7036V16.1875Z" fill="#000001"/>
</g>
<defs>
<clipPath id="clip0_178_528">
<rect width="20.5825" height="20" fill="white"/>
</clipPath>
</defs>
</svg>
