<svg width="32" height="32" viewBox="0 0 32 32" fill="none" xmlns="http://www.w3.org/2000/svg">
<g clip-path="url(#clip0_29_794)">
<path d="M0.765015 16.76H3.80501V15.24H5.33501V13.71H6.85501V12.19H8.38502V10.67H9.90501V9.14H11.425V7.62H12.955V6.09H14.475V4.57H17.525V6.09H19.045V7.62H20.575V9.14H22.095V10.67H23.615V12.19H25.145V13.71H26.665V15.24H28.185V16.76H31.235V13.71H29.715V12.19H28.185V10.67H26.665V9.14H25.145V7.62H23.615V6.09H22.095V4.57H20.575V3.05H19.045V1.52H17.525V0H14.475V1.52H12.955V3.05H11.425V4.57H9.90501V6.09H8.38502V7.62H6.85501V9.14H5.33501V10.67H3.80501V12.19H2.28501V13.71H0.765015V16.76Z" fill="white"/>
<path d="M26.665 30.4798H20.575V22.8598H19.045V31.9998H28.185V18.2798H26.665V30.4798Z" fill="white"/>
<path d="M26.665 16.7598H25.145V18.2798H26.665V16.7598Z" fill="white"/>
<path d="M25.145 15.2402H23.615V16.7602H25.145V15.2402Z" fill="white"/>
<path d="M23.615 13.71H22.095V15.24H23.615V13.71Z" fill="white"/>
<path d="M22.095 12.1899H20.575V13.7099H22.095V12.1899Z" fill="white"/>
<path d="M20.575 10.6699H19.045V12.1899H20.575V10.6699Z" fill="white"/>
<path d="M19.045 21.3301H17.525V22.8601H19.045V21.3301Z" fill="white"/>
<path d="M19.045 9.14014H17.525V10.6701H19.045V9.14014Z" fill="white"/>
<path d="M17.525 19.8101H14.475V21.3301H17.525V19.8101Z" fill="white"/>
<path d="M17.525 7.62012H14.475V9.14012H17.525V7.62012Z" fill="white"/>
<path d="M14.475 21.3301H12.955V22.8601H14.475V21.3301Z" fill="white"/>
<path d="M14.475 9.14014H12.955V10.6701H14.475V9.14014Z" fill="white"/>
<path d="M12.955 22.8598H11.425V30.4798H5.33502V18.2798H3.80502V31.9998H12.955V22.8598Z" fill="white"/>
<path d="M12.955 10.6699H11.425V12.1899H12.955V10.6699Z" fill="white"/>
<path d="M11.425 12.1899H9.90503V13.7099H11.425V12.1899Z" fill="white"/>
<path d="M9.90501 13.71H8.38501V15.24H9.90501V13.71Z" fill="white"/>
<path d="M8.38501 15.2402H6.85501V16.7602H8.38501V15.2402Z" fill="white"/>
<path d="M6.85502 16.7598H5.33502V18.2798H6.85502V16.7598Z" fill="white"/>
</g>
<defs>
<clipPath id="clip0_29_794">
<rect width="32" height="32" fill="white"/>
</clipPath>
</defs>
</svg>
