<?xml version="1.0" encoding="UTF-8"?>
<svg xmlns="http://www.w3.org/2000/svg" xmlns:xlink="http://www.w3.org/1999/xlink" width="3883" height="3882" viewBox="0 0 3883 3882">
<path fill-rule="nonzero" fill="rgb(100%, 100%, 100%)" fill-opacity="1" d="M 0.761719 0.171875 L 3882.488281 0.171875 L 3882.488281 3881.898438 C 2588.578125 3881.898438 1294.671875 3881.898438 0.761719 3881.898438 C 0.761719 2587.988281 0.761719 1294.078125 0.761719 0.171875 "/>
<path fill-rule="nonzero" fill="rgb(42.747498%, 42.747498%, 42.747498%)" fill-opacity="1" d="M 1941.960938 787.378906 C 1934.351562 787.378906 1926.699219 787.539062 1919.03125 787.859375 C 1621.160156 800.320312 1389.789062 1051.871094 1402.230469 1349.738281 C 1414.359375 1639.929688 1653.441406 1867.011719 1941.171875 1867.011719 C 1941.179688 1867.011719 1941.179688 1867.011719 1941.179688 1867.011719 C 1948.789062 1867.011719 1956.429688 1866.851562 1964.109375 1866.53125 C 2261.980469 1854.078125 2493.351562 1602.519531 2480.898438 1304.648438 C 2468.769531 1014.460938 2229.699219 787.378906 1941.960938 787.378906 Z M 2340.480469 1936.800781 C 2334.261719 1936.800781 2328.03125 1937.921875 2322.121094 1940.160156 L 1936.359375 2086.179688 L 1549.441406 1941.488281 C 1543.570312 1939.289062 1537.410156 1938.199219 1531.269531 1938.199219 C 1524.058594 1938.199219 1516.851562 1939.699219 1510.140625 1942.691406 C 1392.25 1995.269531 1263.179688 2052.199219 1172.46875 2136.828125 C 1077.238281 2225.679688 1028.359375 2340.441406 997.398438 2536.328125 C 980.503906 2643.269531 968.558594 2777.28125 958.863281 2922.695312 C 957.246094 2946.96875 955.6875 2971.5625 954.183594 2996.398438 L 2924.589844 2996.390625 L 2924.601562 2996.390625 L 2924.699219 2996.402344 C 2923.78125 2971.816406 2922.820312 2947.222656 2921.78125 2922.683594 L 2921.78125 2922.695312 C 2915.28125 2768.738281 2905.519531 2617.089844 2880.46875 2489.910156 C 2848.53125 2327.730469 2790.679688 2199.128906 2694.078125 2110.261719 C 2599.28125 2023.050781 2471.710938 1979.441406 2357.550781 1939.691406 C 2352.019531 1937.761719 2346.25 1936.800781 2340.480469 1936.800781 Z M 2340.480469 1936.800781 "/>
</svg>
